<?xml version="1.0" encoding="utf-8"?>
<!-- Generator: Adobe Illustrator 28.2.0, SVG Export Plug-In . SVG Version: 6.00 Build 0)  -->
<svg version="1.1" id="Layer_1" xmlns="http://www.w3.org/2000/svg" xmlns:xlink="http://www.w3.org/1999/xlink" x="0px" y="0px"
	 viewBox="0 0 62.4 62.4" style="enable-background:new 0 0 62.4 62.4;" xml:space="preserve">
<style type="text/css">
	.st0{clip-path:url(#SVGID_00000028296655594711537210000009368488761465355400_);}
	.st1{fill:#C4A07D;}
</style>
<g>
	<defs>
		<rect id="SVGID_1_" y="0" width="62.4" height="62.4"/>
	</defs>
	<clipPath id="SVGID_00000134215424768970696310000000081067170092785554_">
		<use xlink:href="#SVGID_1_"  style="overflow:visible;"/>
	</clipPath>
	<g id="Group_375" style="clip-path:url(#SVGID_00000134215424768970696310000000081067170092785554_);">
		<path id="Path_823" class="st1" d="M54.6,25.4h6.8c0.5,0,0.9-0.4,0.9-0.9v0v-4.6c0,0,0,0,0,0c0-0.1,0-0.1,0-0.2c0,0,0,0,0,0
			c0-0.1,0-0.1,0-0.2c0,0,0,0,0-0.1c0,0,0-0.1-0.1-0.1c0,0,0,0,0-0.1c0,0,0-0.1-0.1-0.1c0,0,0,0,0,0c0,0-0.1,0-0.1-0.1c0,0,0,0,0,0
			l0,0L31.7,0.3c-0.3-0.2-0.7-0.2-1,0L0.5,19l0,0c0,0,0,0-0.1,0c0,0-0.1,0-0.1,0.1c0,0,0,0,0,0c0,0,0,0.1-0.1,0.1c0,0,0,0,0,0.1
			c0,0,0,0.1-0.1,0.1c0,0,0,0,0,0.1c0,0.1,0,0.1,0,0.2c0,0,0,0,0,0c0,0,0,0.1,0,0.1c0,0,0,0,0,0v4.6c0,0.5,0.4,0.9,0.9,0.9
			c0,0,0,0,0,0h6.7l2.4,3v20.3L8,51.3H4.5c-0.5,0-0.9,0.4-0.9,0.9l0,0v3.6H1c-0.5,0-0.9,0.4-0.9,0.9v4.6c0,0.5,0.4,0.9,0.9,0.9
			c0,0,0,0,0,0h60.4c0.5,0,0.9-0.4,0.9-0.9l0,0v-4.6c0-0.5-0.4-0.9-0.9-0.9l0,0h-2.6v-3.6c0-0.5-0.4-0.9-0.9-0.9l0,0h-3.5l-2.1-2.7
			V28.3L54.6,25.4z M31.2,2.2l26.9,16.7H4.3L31.2,2.2z M60.4,60.5H2v-2.7h58.5V60.5z M56.9,55.9H5.5v-2.7h51.5L56.9,55.9z
			 M15.8,49.6l1.4,1.7h-6.8l1.4-1.7c0.1-0.2,0.2-0.4,0.2-0.6V28c0-0.2-0.1-0.4-0.2-0.6l-1.6-2h7.3l-1.6,2c-0.1,0.2-0.2,0.4-0.2,0.6
			v21C15.6,49.2,15.7,49.4,15.8,49.6 M17.5,48.6V28.3l2.4-3h5.3l2.4,3v20.3l-2.1,2.7h-5.8L17.5,48.6z M33.2,49.6l1.4,1.7h-6.8
			l1.4-1.7c0.1-0.2,0.2-0.4,0.2-0.6V28c0-0.2-0.1-0.4-0.2-0.6l-1.6-2h7.3l-1.6,2C33.1,27.6,33,27.8,33,28v21
			C33,49.2,33.1,49.4,33.2,49.6 M34.9,48.6V28.3l2.4-3h5.3l2.4,3v20.3l-2.1,2.7H37L34.9,48.6z M50.6,49.6l1.4,1.7h-6.8l1.4-1.7
			c0.1-0.2,0.2-0.4,0.2-0.6V28c0-0.2-0.1-0.4-0.2-0.6l-1.6-2h7.3l-1.6,2c-0.1,0.2-0.2,0.4-0.2,0.6v21C50.4,49.2,50.4,49.4,50.6,49.6
			 M2,20.8h58.5v2.7H2V20.8z"/>
		<path id="Path_824" class="st1" d="M44,14H18.3c-0.5,0-0.9,0.4-0.9,0.9s0.4,0.9,0.9,0.9H44c0.5,0,0.9-0.4,0.9-0.9S44.6,14,44,14"
			/>
	</g>
</g>
</svg>
