<?xml version="1.0" encoding="utf-8"?>
<!-- Generator: Adobe Illustrator 28.2.0, SVG Export Plug-In . SVG Version: 6.00 Build 0)  -->
<svg version="1.1" id="Layer_1" xmlns="http://www.w3.org/2000/svg" xmlns:xlink="http://www.w3.org/1999/xlink" x="0px" y="0px"
	 viewBox="0 0 68.1 56.7" style="enable-background:new 0 0 68.1 56.7;" xml:space="preserve">
<style type="text/css">
	.st0{fill:#C4A07D;}
</style>
<g id="Group_376" transform="translate(0 -4.36)">
	<path id="Path_188" class="st0" d="M67.8,22.5L50,4.7c-0.4-0.4-1.1-0.4-1.5,0c0,0,0,0,0,0l-6.3,6.3c-0.4,0.4-0.4,1.1,0,1.5
		c0,0,0,0,0,0l2.6,2.6l-4.4,4.4c-2-0.3-4.1-0.2-6,0.3c-2.1-0.7-4.4-0.7-6.5-0.3L23.6,15l2.3-2.3c0.4-0.4,0.4-1.1,0-1.5c0,0,0,0,0,0
		L19.5,5c-0.4-0.4-1.1-0.4-1.5,0L0.3,22.8c-0.4,0.4-0.4,1.1,0,1.5c0,0,0,0,0,0l6.3,6.3C7,31,7.6,31,8,30.6l2.3-2.3l4.4,4.4
		c-0.8,3.3-0.2,6.7,1.7,9.5l-0.6,0.6c-1.4,1.4-1.4,3.7,0,5l0.3,0.3c0.7,0.7,1.6,1,2.5,1h0c0,0,0,0,0,0c0,0.9,0.4,1.9,1,2.5l0.3,0.3
		c0.7,0.7,1.6,1,2.5,1h0c0,0,0,0,0,0c0,0.9,0.4,1.9,1,2.5l0.3,0.3c0.7,0.7,1.6,1,2.5,1h0c0,1,0.4,1.9,1,2.5l0.3,0.3
		c1.4,1.4,3.7,1.4,5.1,0l0.7-0.7c1.8,1.1,4.2,0.5,5.2-1.3c0.2-0.3,0.3-0.5,0.4-0.8c0.7,0.5,1.5,0.8,2.4,0.8l0,0
		c2.1,0,3.7-1.6,3.8-3.7c0.1,0,0.3,0,0.4,0c2.1,0,3.8-1.7,3.8-3.8c0-0.7-0.2-1.4-0.6-2.1c2-0.6,3.2-2.7,2.6-4.7
		c-0.2-0.6-0.5-1.1-0.9-1.6c2.8-3.2,2.7-8,2.4-10.2l4.4-4.4l2.6,2.6c0.4,0.4,1.1,0.4,1.5,0l6.3-6.3C68.2,23.5,68.2,22.9,67.8,22.5
		 M7.3,28.4l-4.8-4.8L18.8,7.2l4.8,4.8L7.3,28.4z M17.6,46.7l-0.3-0.3c-0.6-0.6-0.6-1.5,0-2.1l0,0l1.1-1.1c0.6-0.6,1.5-0.6,2.1,0
		l0.3,0.3c0.6,0.6,0.6,1.5,0,2.1l-1.1,1.1C19.1,47.3,18.1,47.3,17.6,46.7 M21.5,50.7l-0.3-0.3c-0.6-0.6-0.6-1.5,0-2.1l1.1-1.1
		c0.6-0.6,1.5-0.6,2.1,0l0.3,0.3c0.6,0.6,0.6,1.5,0,2.1l-1.1,1.1C23,51.2,22.1,51.2,21.5,50.7 M25.4,54.6l-0.3-0.3
		c-0.6-0.6-0.6-1.5,0-2.1l0,0l1.1-1.1c0.6-0.6,1.5-0.6,2.1,0l0.3,0.3c0.6,0.6,0.6,1.5,0,2.1l-1.1,1.1C27,55.2,26,55.2,25.4,54.6
		 M30.4,59c-0.4,0-0.8-0.2-1.1-0.4L29,58.2c-0.6-0.6-0.6-1.5,0-2.1l1.1-1.1c0.6-0.6,1.5-0.6,2.1,0l0.3,0.3c0.6,0.6,0.6,1.5,0,2.1
		l-1.1,1.1C31.2,58.8,30.8,59,30.4,59 M49.2,46.1c-0.7,0.7-1.8,0.7-2.5,0l0,0l-8.9-8.9c-0.4-0.4-1.1-0.4-1.5,0s-0.4,1.1,0,1.5
		l8.9,8.9l0,0l1.8,1.8c0.7,0.7,0.7,1.8,0.1,2.5c-0.7,0.7-1.8,0.7-2.5,0.1c0,0,0,0-0.1-0.1L33.9,41.1c-0.4-0.4-1.1-0.4-1.5,0
		s-0.4,1.1,0,1.5L42.8,53l0,0c0.7,0.7,0.7,1.8,0,2.5c-0.3,0.3-0.8,0.5-1.2,0.5l0,0c-0.5,0-0.9-0.2-1.2-0.5l-2.1-2.1l0,0l0,0L30,45.1
		c-0.4-0.4-1.1-0.4-1.5,0s-0.4,1.1,0,1.5l8.3,8.3c0.7,0.7,0.7,1.8,0,2.5c-0.5,0.5-1.3,0.7-2,0.3c0.5-1.3,0.2-2.8-0.8-3.8l-0.3-0.3
		c-0.7-0.7-1.6-1-2.5-1h0c0-1-0.4-1.9-1-2.5l-0.3-0.3c-0.7-0.7-1.6-1-2.5-1h0c0,0,0,0,0,0c0-0.9-0.4-1.9-1-2.5l-0.3-0.3
		c-0.7-0.7-1.6-1.1-2.5-1c0-1-0.4-1.9-1-2.5l-0.3-0.3c-1-1-2.5-1.3-3.8-0.8c-1.6-2.5-2-5.5-1.2-8.3c0.1-0.4,0-0.7-0.3-1l-4.8-4.8
		l10.3-10.3l4.8,4.8c0.3,0.3,0.6,0.4,1,0.3c1-0.3,2.1-0.4,3.2-0.4c-0.4,0.3-0.8,0.6-1.2,1L23.1,29c-1.5,1.5-1.5,3.9,0,5.4
		c0.7,0.7,1.7,1.1,2.7,1.1l0,0c1,0,2-0.4,2.7-1.1l5.8-5.8l8.9,9.1l6,6C49.9,44.3,49.9,45.4,49.2,46.1C49.2,46.1,49.2,46.1,49.2,46.1
		 M51.2,30.9c-0.3,0.3-0.4,0.6-0.3,1c0.3,1.4,0.3,2.8,0.1,4.3c-0.2,1.7-0.8,3.2-1.8,4.6l-4.5-4.5l-9.6-9.9h0v0c0,0,0,0-0.1-0.1
		c0,0-0.1,0-0.1-0.1c0,0-0.1,0-0.1,0c0,0-0.1,0-0.1,0c0,0-0.1,0-0.1,0s-0.1,0-0.1,0s-0.1,0-0.1,0c0,0-0.1,0-0.1,0c0,0-0.1,0-0.1,0
		s-0.1,0-0.1,0c0,0-0.1,0-0.1,0c0,0-0.1,0-0.1,0c0,0-0.1,0-0.1,0c0,0-0.1,0-0.1,0c0,0-0.1,0-0.1,0.1c0,0,0,0-0.1,0.1l0,0h0L27,32.9
		c-0.3,0.3-0.8,0.5-1.2,0.5l0,0c-1,0-1.8-0.8-1.8-1.7c0-0.5,0.2-0.9,0.5-1.2l6.8-6.8c0.9-0.9,2.1-1.5,3.3-1.9c0,0,0.1,0,0.1,0
		c1.9-0.5,3.9-0.6,5.8-0.2c0.4,0.1,0.7,0,1-0.3l4.8-4.8l9.6,9.6L51.2,30.9z M60.8,28L44.5,11.7l4.8-4.8l16.3,16.3L60.8,28z"/>
</g>
</svg>
