<?xml version="1.0" encoding="utf-8"?>
<!-- Generator: Adobe Illustrator 28.2.0, SVG Export Plug-In . SVG Version: 6.00 Build 0)  -->
<svg version="1.1" id="Group_372" xmlns="http://www.w3.org/2000/svg" xmlns:xlink="http://www.w3.org/1999/xlink" x="0px" y="0px"
	 viewBox="0 0 69.8 68.7" style="enable-background:new 0 0 69.8 68.7;" xml:space="preserve">
<style type="text/css">
	.st0{clip-path:url(#SVGID_00000086670357496845185990000000454201574681825461_);}
	.st1{fill:#C4A07D;}
</style>
<g>
	<defs>
		<rect id="SVGID_1_" y="0" width="69.8" height="68.7"/>
	</defs>
	<clipPath id="SVGID_00000125579856677896511450000015261897439869176495_">
		<use xlink:href="#SVGID_1_"  style="overflow:visible;"/>
	</clipPath>
	<g id="Group_157" style="clip-path:url(#SVGID_00000125579856677896511450000015261897439869176495_);">
		<path id="Path_179" class="st1" d="M28.5,28.7c3.5,0,6.4-2.9,6.4-6.4c0-0.5-0.4-1-0.9-1L29.8,7.5c1-0.3,1.9-0.8,2.7-1.5
			c0,0,0,0,0.1,0c1.2-1,2.8-1.6,4.4-1.6c1.4,0,2.7,0.4,3.9,1.2v23.9h-0.5c-0.8,0-1.5,0.5-1.9,1.2l0,0l-0.4,0.8
			c-0.6,0.7-1.5,1.3-2.4,1.5c-1.8,0.5-3,2.1-3.1,3.9v1.6c0,0.6,0.5,1.1,1.1,1.1h16.8c0.6,0,1.1-0.5,1.1-1.1v-1.5
			c-0.1-1.8-1.4-3.4-3.1-3.9c-0.9-0.2-1.8-0.8-2.4-1.5l-0.4-0.8c-0.4-0.7-1.1-1.2-1.9-1.2H43V5.6c1.1-0.8,2.5-1.2,3.9-1.2
			c1.6,0,3.2,0.6,4.4,1.6c0,0,0,0,0.1,0c0.8,0.6,1.7,1.1,2.7,1.5l-4.2,13.7c-0.5,0.1-0.9,0.5-0.9,1c0,3.5,2.9,6.4,6.4,6.4
			c3.5,0,6.4-2.9,6.4-6.4c0-0.5-0.4-1-0.9-1L56.4,6.5l0,0c0,0,0,0,0,0c0,0,0-0.1,0-0.1c0,0,0,0,0,0s0,0,0,0s0-0.1-0.1-0.1s0,0,0,0
			s0,0,0,0s0,0-0.1-0.1s0,0,0,0s0,0,0,0c0,0-0.1,0-0.1-0.1c0,0,0,0-0.1,0s0,0,0,0c0,0-0.1,0-0.1,0s0,0-0.1,0l0,0c0,0,0,0-0.1,0
			s0,0,0,0c-1.1-0.2-2-0.7-2.9-1.3l0,0C50,2.1,46.2,1.6,43,3.1V1.1C43,0.5,42.6,0,42,0c-0.6,0-1.1,0.4-1.1,1c0,0,0,0,0,0.1v2.1
			c-3.2-1.5-7-1.1-9.7,1.2l0,0c-0.8,0.7-1.8,1.1-2.9,1.3c0,0,0,0,0,0h0c0,0,0,0,0,0l0,0c0,0,0,0-0.1,0c0,0-0.1,0-0.1,0c0,0,0,0,0,0
			s0,0-0.1,0s-0.1,0-0.1,0.1s0,0,0,0s0,0,0,0s0,0-0.1,0.1s0,0,0,0s0,0,0,0s0,0.1-0.1,0.1s0,0,0,0s0,0,0,0.1s0,0.1,0,0.1c0,0,0,0,0,0
			l0,0L23,21.2c-0.5,0.1-0.9,0.5-0.9,1C22.1,25.8,25,28.7,28.5,28.7 M43.6,31.6l0.4,0.7c0.9,1.3,2.2,2.2,3.7,2.6
			c0.9,0.3,1.5,1,1.6,1.9v0.5H34.7v-0.5c0.1-0.9,0.7-1.6,1.6-1.9c1.5-0.4,2.8-1.3,3.7-2.6l0.4-0.7c0,0,0,0,0.1,0L43.6,31.6
			C43.6,31.6,43.6,31.6,43.6,31.6 M58.7,21.2h-6.6l3.3-10.8L58.7,21.2z M55.4,26.6c-2,0-3.7-1.3-4.2-3.2h8.3
			C59.1,25.2,57.4,26.6,55.4,26.6 M28.5,10.4l3.3,10.8h-6.6L28.5,10.4z M28.5,26.6c-2,0-3.7-1.3-4.2-3.2h8.3
			C32.2,25.2,30.5,26.6,28.5,26.6"/>
		<path id="Path_180" class="st1" d="M68.8,33.7c-0.7-0.7-1.7-1.1-2.7-1.1c-1,0-1.9,0.4-2.6,1L46.2,48.1c-0.8-1.7-2.5-2.9-4.4-2.9
			h-7.7c-7.3-6.9-18.8-6.7-25.8,0.6c-1,1-1.9,2.2-2.6,3.4L0.1,59c-0.3,0.5-0.1,1.2,0.4,1.5s1.2,0.1,1.5-0.4c0,0,0,0,0,0l5.6-9.7
			c4.5-7.7,14.3-10.3,22-5.9c1.2,0.7,2.3,1.6,3.3,2.6c0.2,0.2,0.5,0.3,0.7,0.3h8.1c1.5,0,2.7,1.2,2.7,2.7c0,1.5-1.2,2.7-2.7,2.7
			c0,0,0,0,0,0H24.3c-0.6,0-1.1,0.4-1.1,1s0.4,1.1,1,1.1c0,0,0,0,0.1,0h17.5c2.5,0,4.5-1.8,4.8-4.3l18.2-15.3
			c0.4-0.3,0.8-0.5,1.3-0.5c0.4,0,0.8,0.1,1.1,0.4l0,0c0.6,0.7,0.6,1.8-0.1,2.5L52.8,56.6c-2.3,2.9-4,4.3-7.6,4.3H23.6
			c-4.7,0-6.2,0.8-8.2,4.4l-1.1,1.8c-0.3,0.5-0.2,1.1,0.3,1.5c0.5,0.3,1.1,0.2,1.5-0.3c0,0,0-0.1,0.1-0.1l1.1-1.8
			c1.7-2.9,2.4-3.3,6.4-3.3h21.6c4.9,0,7.1-2.3,9.3-5.1L68.9,39C70.2,37.5,70.1,35.2,68.8,33.7"/>
	</g>
</g>
</svg>
