<?xml version="1.0" encoding="utf-8"?>
<!-- Generator: Adobe Illustrator 28.2.0, SVG Export Plug-In . SVG Version: 6.00 Build 0)  -->
<svg version="1.1" id="Layer_1" xmlns="http://www.w3.org/2000/svg" xmlns:xlink="http://www.w3.org/1999/xlink" x="0px" y="0px"
	 viewBox="0 0 47 65.8" style="enable-background:new 0 0 47 65.8;" xml:space="preserve">
<style type="text/css">
	.st0{fill:#C4A07D;}
</style>
<g id="Group_374" transform="translate(-13.948 -4.977)">
	<g id="Group_178" transform="translate(13.948 4.977)">
		<path id="Path_181" class="st0" d="M46.9,11.8L46.9,11.8c-0.1-0.1-0.1-0.2-0.2-0.3L35.5,0.3C35.3,0.1,35.1,0,34.8,0H1.1
			C0.5,0,0,0.5,0,1.1c0,0,0,0,0,0V57C0,57.6,0.5,58,1.1,58h13.9c0.6,0,1.1-0.5,1.1-1.1s-0.5-1.1-1.1-1.1H2.1V2.1h31.6v10.1
			c0,0.6,0.5,1.1,1.1,1.1h10.1v42.7H32c-0.6,0-1.1,0.5-1.1,1.1S31.5,58,32,58h13.9c0.6,0,1.1-0.5,1.1-1.1V12.2
			C47,12,46.9,11.9,46.9,11.8 M35.8,3.6l7.5,7.5h-7.5V3.6z"/>
		<path id="Path_182" class="st0" d="M33.9,50.1c0.5-0.2,0.9-0.7,0.7-1.3L34,46l2-2.1c0.4-0.4,0.4-1,0-1.5l-2-2.1l0.7-2.8
			c0.1-0.5-0.2-1.1-0.7-1.3l-2.8-0.8l-0.8-2.8c-0.2-0.5-0.7-0.9-1.3-0.7l-2.8,0.7l-2.1-2c-0.4-0.4-1-0.4-1.5,0l-2.1,2L17.9,32
			c-0.5-0.1-1.1,0.2-1.3,0.7l-0.8,2.8L13,36.4c-0.5,0.2-0.9,0.7-0.7,1.3l0.7,2.8l-2,2.1c-0.4,0.4-0.4,1,0,1.5l2,2.1l-0.7,2.8
			c-0.1,0.5,0.2,1.1,0.7,1.3l2.8,0.8l0.8,2.8c0.2,0.5,0.7,0.9,1.3,0.7l0.2-0.1v10.4c0,0.6,0.5,1.1,1.1,1.1c0.2,0,0.4-0.1,0.6-0.2
			l3.7-2.8l3.7,2.8c0.5,0.3,1.1,0.2,1.5-0.2c0.1-0.2,0.2-0.4,0.2-0.6V54.3l0.2,0.1c0.5,0.1,1.1-0.2,1.3-0.7l0.8-2.8L33.9,50.1z
			 M26.8,62.7l-2.7-2c-0.4-0.3-0.9-0.3-1.3,0l-2.7,2v-8.8l0.5-0.1l2.1,2c0.4,0.4,1,0.4,1.5,0l2.1-2l0.5,0.1L26.8,62.7z M30,49
			c-0.3,0.1-0.6,0.4-0.7,0.7l-0.7,2.3l-2.4-0.6c-0.3-0.1-0.7,0-1,0.3l-1.8,1.7l-1.8-1.7c-0.2-0.2-0.5-0.3-0.7-0.3
			c-0.1,0-0.2,0-0.2,0l-2.4,0.6l-0.7-2.3c-0.1-0.3-0.4-0.6-0.7-0.7l-2.3-0.7l0.6-2.4c0.1-0.3,0-0.7-0.3-1l-1.7-1.8l1.7-1.8
			c0.2-0.3,0.3-0.6,0.3-1l-0.6-2.4l2.3-0.7c0.3-0.1,0.6-0.4,0.7-0.7l0.7-2.3l2.4,0.6c0.3,0.1,0.7,0,1-0.3l1.8-1.7l1.8,1.7
			c0.3,0.2,0.6,0.3,1,0.3l2.4-0.6l0.7,2.3c0.1,0.3,0.4,0.6,0.7,0.7l2.3,0.7l-0.6,2.4c-0.1,0.3,0,0.7,0.3,1l1.7,1.8L32.1,45
			c-0.2,0.3-0.3,0.6-0.3,1l0.6,2.4L30,49z"/>
		<path id="Path_183" class="st0" d="M23.5,35.7c-4.1,0-7.5,3.4-7.5,7.5c0,4.1,3.4,7.5,7.5,7.5c4.1,0,7.5-3.4,7.5-7.5l0,0
			C31,39.1,27.6,35.7,23.5,35.7 M23.5,48.6c-3,0-5.4-2.4-5.4-5.4c0-3,2.4-5.4,5.4-5.4s5.4,2.4,5.4,5.4
			C28.9,46.2,26.4,48.6,23.5,48.6"/>
		<path id="Path_184" class="st0" d="M11.2,20.2h24.6c0.6,0,1.1-0.5,1.1-1.1c0-0.6-0.5-1.1-1.1-1.1H11.2c-0.6,0-1.1,0.5-1.1,1.1
			C10.1,19.7,10.6,20.2,11.2,20.2L11.2,20.2"/>
		<path id="Path_185" class="st0" d="M11.2,26.7h24.6c0.6,0,1.1-0.5,1.1-1.1c0-0.6-0.5-1.1-1.1-1.1H11.2c-0.6,0-1.1,0.5-1.1,1.1
			C10.1,26.2,10.6,26.7,11.2,26.7L11.2,26.7"/>
	</g>
</g>
</svg>
