<?xml version="1.0" encoding="utf-8"?>
<!-- Generator: Adobe Illustrator 28.2.0, SVG Export Plug-In . SVG Version: 6.00 Build 0)  -->
<svg version="1.1" id="Layer_1" xmlns="http://www.w3.org/2000/svg" xmlns:xlink="http://www.w3.org/1999/xlink" x="0px" y="0px"
	 viewBox="0 0 62.2 61.5" style="enable-background:new 0 0 62.2 61.5;" xml:space="preserve">
<style type="text/css">
	.st0{fill:#C4A07D;}
</style>
<g id="Group_373" transform="translate(-761 -1916.822)">
	<path id="Path_175" class="st0" d="M822,1967.6L822,1967.6l-11.2-10.5c0.9-1.1,0.8-2.6-0.2-3.6l-0.3-0.3c-0.5-0.5-1.2-0.8-1.9-0.8
		l0,0c-0.7,0-1.3,0.3-1.8,0.7l-10-9.4l0,0c1.1-1.2,0.9-3.1-0.3-4.2l-0.8-0.8c0.9-1.3,1.7-2.6,2.5-4c1.3,0.5,2.8,0.2,3.8-0.8l0.7-0.7
		c1.4-1.4,1.4-3.7,0-5.1l-10.4-10.4c-0.7-0.7-1.6-1.1-2.5-1.1l0,0c-1,0-1.9,0.4-2.6,1.1l-0.7,0.7c-1,1-1.3,2.5-0.8,3.8
		c-6.3,3.4-11.4,8.5-14.8,14.8c-1.3-0.5-2.8-0.2-3.8,0.8l-0.7,0.7c-1.4,1.4-1.4,3.7,0,5.1l10.4,10.4c1.4,1.4,3.7,1.4,5.1,0l0.7-0.7
		l0,0c1-1,1.3-2.5,0.8-3.8c1.4-0.7,2.7-1.6,4-2.5l0.8,0.8c0.5,0.6,1.3,0.9,2.1,1c0.1,0,0.2,0,0.3,0c0.7,0,1.3-0.3,1.8-0.7l0,0
		l9.4,10c-1,1.1-0.9,2.7,0.1,3.8l0.3,0.3c1,1,2.5,1.1,3.6,0.2l10.4,11.1l0,0c1.7,1.7,4.4,1.7,6,0
		C823.7,1972,823.7,1969.3,822,1967.6 M787.6,1919.9l0.7-0.7c0.7-0.7,1.8-0.7,2.4,0c0,0,0,0,0,0l10.4,10.4c0.7,0.7,0.7,1.8,0,2.4
		c0,0,0,0,0,0l-0.7,0.7c-0.7,0.7-1.8,0.7-2.4,0c0,0,0,0,0,0l-10.4-10.4C786.9,1921.6,786.9,1920.5,787.6,1919.9 M781,1952.1
		l-0.7,0.7c-0.7,0.7-1.8,0.7-2.4,0c0,0,0,0,0,0l-10.4-10.4c-0.7-0.7-0.7-1.8,0-2.4c0,0,0,0,0,0l0.7-0.7c0.7-0.7,1.8-0.7,2.4,0
		l10.4,10.4C781.7,1950.3,781.7,1951.4,781,1952.1 M782.1,1948.1l-9.9-9.9c3.2-6.1,8.2-11.1,14.3-14.3l9.9,9.9
		c-1.6,3-3.7,5.8-6.1,8.2C787.9,1944.4,785.1,1946.5,782.1,1948.1 M790.8,1946.9c-0.2,0.1-0.4,0.2-0.6,0.2c-0.3,0-0.7-0.2-0.9-0.5
		l-0.6-0.6c1-0.8,2-1.7,3-2.7c0.9-0.9,1.8-1.9,2.7-3l0.6,0.6c0.5,0.5,0.6,1.2,0.3,1.5L790.8,1946.9z M793.5,1946.9l1.7-1.7l10,9.4
		l-2.4,2.4L793.5,1946.9z M804.4,1960.9c-0.3,0.3-0.9,0.3-1.2,0l-0.3-0.3c-0.3-0.3-0.3-0.9,0-1.2l4.9-4.9c0.3-0.3,0.9-0.3,1.2,0
		l0.3,0.3c0.3,0.3,0.3,0.9,0,1.2L804.4,1960.9z M820.7,1972.3c-0.9,0.9-2.4,0.9-3.3,0l-10.5-11.2l2.6-2.6l11.2,10.5
		C821.6,1969.9,821.6,1971.4,820.7,1972.3"/>
	<path id="Path_176" class="st0" d="M783.3,1971.4h-1.4v-1.4c0-2-1.6-3.6-3.6-3.6h-11.4c-2,0-3.6,1.6-3.6,3.6v1.4h-1.4
		c-0.5,0-0.9,0.4-0.9,0.9v5c0,0.5,0.4,0.9,0.9,0.9h21.3c0.5,0,0.9-0.4,0.9-0.9v-5C784.2,1971.9,783.8,1971.4,783.3,1971.4
		 M765.2,1970c0-1,0.8-1.7,1.7-1.7h11.4c1,0,1.7,0.8,1.7,1.7v1.4h-14.8V1970z M782.3,1976.4h-19.4v-3.1h19.4V1976.4z"/>
</g>
</svg>
