<svg width="182" height="47" viewBox="0 0 182 47" fill="none" xmlns="http://www.w3.org/2000/svg">
<path d="M60.7355 19.2942V1.31592H68.5433C69.6727 1.31592 70.6578 1.51294 71.4971 1.90697C72.3363 2.30101 72.9863 2.85794 73.4486 3.5762C73.9109 4.29602 74.1421 5.14304 74.1421 6.11882V6.42754C74.1421 7.50571 73.8861 8.3791 73.3711 9.04773C72.8576 9.7148 72.2231 10.2035 71.4707 10.5122V10.9745C72.1548 11.0086 72.6869 11.2444 73.0624 11.6803C73.4393 12.1162 73.627 12.6949 73.627 13.4147V19.2958H70.2358V13.9018C70.2358 13.4907 70.1288 13.1572 69.9147 12.8997C69.7006 12.6422 69.3454 12.5149 68.849 12.5149H64.1236V19.2958H60.7324L60.7355 19.2942ZM64.1267 9.4309H68.185C68.9901 9.4309 69.6184 9.21217 70.073 8.77624C70.5259 8.34032 70.754 7.76168 70.754 7.04342V6.7859C70.754 6.06608 70.5306 5.48899 70.0869 5.05151C69.6417 4.61559 69.0087 4.39685 68.1865 4.39685H64.1283V9.4309H64.1267Z" fill="white"/>
<path d="M83.3092 19.294V1.31567H94.8665V4.39816H86.6988V8.68757H94.1467V11.7701H86.6988V16.2131H95.0201V19.2955H83.3076L83.3092 19.294Z" fill="white"/>
<path d="M104.179 19.2938V14.978L113.065 4.75636V4.34526H104.435V1.31396H116.609V5.6282L107.724 15.8499V16.261H116.662V19.2923H104.18L104.179 19.2938Z" fill="white"/>
<path d="M148.851 19.294V1.31567H152.242V16.2131H160.461V19.2955H148.851V19.294Z" fill="white"/>
<path d="M171.623 19.294L167.051 1.31567H170.544L174.345 17.1113H174.705L178.506 1.31567H181.999L177.428 19.294H171.623V19.294Z" fill="white"/>
<path d="M62.1035 45.1175V27.6248H72.6743V29.0737H63.7029V35.6218H71.9746V37.0708H63.7029V43.6686H72.7735V45.1175H62.1035V45.1175Z" fill="white"/>
<path d="M83.0547 45.1175V27.6248H86.2287L93.3757 44.1681H93.6751V27.6248H95.2745V45.1175H92.1005L84.9535 28.5493H84.6541V45.1175H83.0547Z" fill="white"/>
<path d="M105.78 45.1175V27.6248H116.351V29.0737H107.38V35.6218H115.651V37.0708H107.38V43.6686H116.45V45.1175H105.78V45.1175Z" fill="white"/>
<path d="M125.952 45.1175V27.6248H132.8C133.883 27.6248 134.837 27.8078 135.662 28.1739C136.487 28.54 137.136 29.069 137.612 29.7609C138.087 30.4528 138.324 31.289 138.324 32.2725V32.5223C138.324 33.7059 138.04 34.6336 137.474 35.3085C136.908 35.9833 136.241 36.4285 135.474 36.6457V36.9451C136.057 36.9622 136.549 37.1452 136.948 37.4943C137.348 37.8433 137.548 38.4018 137.548 39.1682V45.116H135.949V39.3435C135.949 38.8098 135.803 38.4018 135.511 38.1195C135.22 37.8371 134.782 37.6944 134.199 37.6944H127.552V45.116H125.952V45.1175ZM127.552 36.2455H132.649C133.949 36.2455 134.951 35.9414 135.66 35.3333C136.368 34.7252 136.723 33.8549 136.723 32.7224V32.5968C136.723 31.4643 136.377 30.594 135.687 29.9859C134.995 29.3777 133.983 29.0737 132.651 29.0737H127.553V36.2455H127.552Z" fill="white"/>
<path d="M173.727 45.1175V38.1955L167.379 27.6248H169.278L174.375 36.3711H174.675L179.772 27.6248H181.671L175.323 38.1955V45.1175H173.724H173.727Z" fill="white"/>
<path d="M129.455 19.294H134.82C135.87 18.9884 136.777 18.4935 137.531 17.7908C138.867 16.5497 139.536 14.7734 139.536 12.462V8.14616C139.536 5.83469 138.869 4.05842 137.531 2.81736C136.777 2.11616 135.87 1.61973 134.82 1.31567H129.457C128.406 1.62129 127.499 2.11616 126.745 2.81736C125.409 4.05842 124.742 5.83469 124.742 8.14616V12.462C124.742 14.7734 125.409 16.5497 126.745 17.7908C127.499 18.492 128.406 18.9884 129.457 19.294H129.455ZM128.13 8.04377C128.13 6.81047 128.486 5.82693 129.196 5.09005C129.907 4.35472 130.887 3.9855 132.137 3.9855C133.388 3.9855 134.388 4.35317 135.091 5.09005C135.792 5.82693 136.144 6.81047 136.144 8.04377V12.5643C136.144 13.7976 135.794 14.7827 135.091 15.5181C134.388 16.2549 133.405 16.6226 132.137 16.6226C130.87 16.6226 129.907 16.2549 129.196 15.5181C128.486 14.7827 128.13 13.7976 128.13 12.5643V8.04377Z" fill="white"/>
<path d="M151.344 44.6552C151.69 44.8429 152.058 44.9949 152.442 45.1175H157.14C157.703 44.9034 158.164 44.6257 158.517 44.2798C158.883 43.9214 159.167 43.5429 159.367 43.1427H159.667V45.1175H161.116V37.046H153.793V38.4453H159.566V38.9448C159.566 40.4946 159.191 41.7279 158.441 42.6431C157.692 43.56 156.525 44.0176 154.943 44.0176C153.361 44.0176 152.065 43.5258 151.156 42.5439C150.249 41.5603 149.794 40.1781 149.794 38.3956V34.3466C149.794 32.5642 150.249 31.1819 151.156 30.1984C152.064 29.2149 153.327 28.7246 154.943 28.7246C156.009 28.7246 156.879 28.9294 157.554 29.3374C158.229 29.7454 158.724 30.3039 159.042 31.0113C159.358 31.7202 159.516 32.5316 159.516 33.4484V33.6237H161.116V33.4981C161.116 31.6148 160.594 30.1084 159.554 28.9744C158.981 28.3508 158.252 27.9055 157.379 27.6248H152.507C151.552 27.9211 150.723 28.4051 150.033 29.0861C148.809 30.2946 148.196 32.0646 148.196 34.3963V38.3444C148.196 39.8942 148.471 41.1973 149.022 42.2553C149.571 43.3133 150.346 44.1138 151.345 44.6537L151.344 44.6552Z" fill="white"/>
<path d="M32.5204 46.4312C30.2571 46.4312 28.3986 45.4818 26.841 43.5287L17.9426 32.3234H5.62666C2.52401 32.3234 0 29.7994 0 26.6968C0 23.5941 2.52401 21.0717 5.62666 21.0717H21.1678C21.1678 21.0717 21.1771 21.0717 21.1818 21.0717C24.5963 20.8746 26.554 19.1263 26.554 16.2672V16.1431C26.554 12.1019 23.1861 11.2533 20.3612 11.2533H5.62666C2.52401 11.2533 0 8.72931 0 5.62666C0 2.52401 2.52401 0 5.62666 0H21.1678C26.9217 0 31.6191 1.65682 34.7544 4.7905C37.4412 7.47739 38.8623 11.2316 38.8623 15.6467V15.7708C38.8623 22.0381 36.1366 26.7371 30.9536 29.4597L36.5151 36.2173C37.4599 37.4133 38.3658 38.7273 38.3658 40.713C38.3658 43.524 36.18 46.4312 32.522 46.4312H32.5204ZM5.62511 23.6996C3.97139 23.6996 2.62794 25.0446 2.62794 26.6968C2.62794 28.3489 3.97294 29.6939 5.62511 29.6939H18.5756C18.9758 29.6939 19.3559 29.877 19.6041 30.1904L28.895 41.8905C29.9484 43.2106 31.0669 43.8017 32.5189 43.8017C34.0997 43.8017 35.7348 42.646 35.7348 40.7115C35.7348 39.6581 35.3252 38.9538 34.4658 37.8648L27.8448 29.8196C27.5795 29.4985 27.4833 29.0687 27.5841 28.6654C27.685 28.2605 27.9735 27.9285 28.3582 27.7703C33.5816 25.6186 36.2312 21.582 36.2312 15.7708V15.6467C36.2312 11.9437 35.077 8.83325 32.8943 6.64899C30.2633 4.01949 26.2081 2.6295 21.1663 2.6295H5.62511C3.97139 2.6295 2.62794 3.9745 2.62794 5.62666C2.62794 7.27882 3.97294 8.62383 5.62511 8.62383H20.3596C25.8839 8.62383 29.1804 11.4348 29.1804 16.1416V16.2657C29.1804 20.5256 26.0747 23.4436 21.2687 23.6981C21.2314 23.6996 21.1942 23.7012 21.1446 23.6981H5.62356L5.62511 23.6996Z" fill="#02D7D8"/>
</svg>
