<?xml version="1.0" encoding="UTF-8"?>
<!DOCTYPE svg PUBLIC "-//W3C//DTD SVG 1.1//EN" "http://www.w3.org/Graphics/SVG/1.1/DTD/svg11.dtd">
<!-- Creator: CorelDRAW X8 -->
<svg xmlns="http://www.w3.org/2000/svg" xml:space="preserve" width="1602mm" height="1451mm" version="1.1" style="shape-rendering:geometricPrecision; text-rendering:geometricPrecision; image-rendering:optimizeQuality; fill-rule:evenodd; clip-rule:evenodd"
viewBox="0 0 160200 145100"
 xmlns:xlink="http://www.w3.org/1999/xlink">
 <defs>
  <style type="text/css">
   <![CDATA[
    .fil1 {fill:#FEFEFE}
    .fil0 {fill:#D7DC00;fill-rule:nonzero}
   ]]>
  </style>
 </defs>
 <g id="Vrstva_x0020_1">
  <metadata id="CorelCorpID_0Corel-Layer"/>
  <g id="_2009505154624">
   <path class="fil0" d="M120842 143080l-18188 0 0 -3614 8584 -9150c1176,-1288 2047,-2408 2613,-3372 566,-958 846,-1866 846,-2730 0,-1176 -299,-2103 -890,-2775 -597,-678 -1449,-1014 -2550,-1014 -1194,0 -2134,411 -2818,1232 -684,815 -1033,1891 -1033,3228l-5281 0c0,-1617 386,-3091 1157,-4428 772,-1338 1860,-2389 3272,-3148 1406,-759 3005,-1138 4790,-1138 2737,0 4858,659 6370,1972 1511,1312 2270,3166 2270,5554 0,1313 -342,2650 -1020,4012 -678,1363 -1848,2949 -3502,4759l-6028 6357 11408 0 0 4255zm21255 -23588l-10257 23588 -5561 0 10282 -22281 -13193 0 0 -4255 18729 0 0 2948zm16167 23588l-5269 0 0 -20341 -6289 1941 0 -4255 10992 -3918 566 0 0 26573z"/>
   <g>
    <path class="fil1" d="M82818 2025c31,0 61,1 92,1l5 0c78,1 157,1 234,3l-1 -32c132,2 263,3 394,5l-2 42 2 -42c6257,84 12516,211 18755,285 11247,132 18225,2190 27035,5955 7234,4101 14567,9419 17945,14504 11505,14105 13371,34601 6871,51376 -7601,19614 -25742,32080 -46378,35379 -4469,715 -13674,700 -14259,2753l-261 30852 -24222 -17c-12,-1537 629,-30429 -606,-31511 -1287,-704 -16772,-2670 -20014,-3339 -6214,-1283 -11892,-3120 -17281,-5685 -10532,-5013 -18434,-12403 -23352,-22651 -8215,-17119 -8197,-38333 2848,-54699 1820,-2696 3101,-4402 5020,-6612 1724,-2126 3595,-3490 5743,-5368 13849,15807 0,0 13849,15807 -4421,5162 -7430,10490 -8001,19958 -1585,26300 14358,38235 41955,40130 378,-80686 51,-10889 336,-71860 -99,-647 -150,-1310 -150,-1985 0,-7317 6019,-13249 13443,-13249zm10543 21469l0 0 -113 65615c17579,1233 38157,-10899 39344,-32641 1190,-21813 -16795,-35789 -39231,-32974zm-10454 -21500l3 32 -3 -32zm242 35l-1 -32c-80,-1 -161,-2 -241,-3l3 32 239 3z"/>
   </g>
  </g>
 </g>
</svg>
