<?xml version="1.0" encoding="utf-8"?>
<!-- Generator: Adobe Illustrator 28.2.0, SVG Export Plug-In . SVG Version: 6.00 Build 0)  -->
<svg version="1.1" id="Group_401" xmlns="http://www.w3.org/2000/svg" xmlns:xlink="http://www.w3.org/1999/xlink" x="0px" y="0px"
	 viewBox="0 0 347.3 64.2" style="enable-background:new 0 0 347.3 64.2;" xml:space="preserve">
<style type="text/css">
	.st0{fill:#0A4A33;}
	.st1{fill:#C39F7D;}
</style>
<g>
	<g id="Group_399">
		<path id="Path_885" class="st0" d="M0,24.6h0.7c0.3,2.6,1.5,5.1,3.2,7.1c1.7,1.9,4.1,3,6.6,3c1.7,0.1,3.4-0.5,4.7-1.8
			c0.9-0.9,1.4-2.2,1.3-3.5c0-2.1-1.3-3.7-4-4.7l-6.3-2.4c-3.8-1.4-5.7-3.9-5.7-7.4c-0.1-1.9,0.8-3.8,2.3-5c1.6-1.4,4-2,7.2-2
			c2.5,0,5.1,0.3,7.5,1v8.1h-0.7c-0.3-2.1-1.2-4.2-2.6-5.8C12.9,9.8,11,8.9,9,9c-1.3,0-2.5,0.4-3.5,1.2c-0.8,0.7-1.3,1.8-1.3,3
			c0,1.8,1.4,3.3,4.3,4.4l5.6,2.2c4,1.6,6,4.1,6,7.7c0.1,2.4-0.9,4.6-2.8,6.1c-2,1.5-4.4,2.3-6.8,2.2c-3.7-0.1-7.2-1-10.4-2.8V24.6z
			 M10.2,2.9L15.3,0h0.4l-5.4,6.3H10L4.6,0H5L10.2,2.9z"/>
		<path id="Path_886" class="st0" d="M27.2,34.1c0.6-0.6,0.9-1.4,0.8-2.3V12c0.1-0.9-0.2-1.7-0.8-2.3c-0.7-0.3-1.4-0.5-2.1-0.6V8.4
			h10.3V9c-0.7,0.1-1.4,0.3-2.1,0.6c-0.6,0.6-0.9,1.4-0.8,2.3v19.8c-0.1,0.9,0.2,1.7,0.8,2.3c0.7,0.3,1.4,0.5,2.1,0.6v0.6H25.1v-0.6
			C25.8,34.6,26.5,34.4,27.2,34.1"/>
		<path id="Path_887" class="st0" d="M42.8,34.1c0.6-0.6,0.9-1.4,0.8-2.3V12.1c0.1-0.7-0.1-1.4-0.5-2c-0.7-0.5-1.6-0.9-2.5-0.9V8.5
			h8.1l8.8,20.3l8.3-20.3h7.5V9c-0.8,0.1-1.6,0.4-2.3,0.8c-0.5,0.6-0.7,1.4-0.6,2.1v19.8c-0.1,0.9,0.2,1.7,0.8,2.3
			c0.7,0.3,1.4,0.5,2.1,0.6v0.6H62.7v-0.6c0.7-0.1,1.4-0.3,2.1-0.6c0.6-0.6,0.9-1.4,0.8-2.3V11.7L56,35.3h-0.9L44.7,11.5v20.3
			c-0.1,0.9,0.2,1.7,0.8,2.3c0.7,0.3,1.4,0.5,2.1,0.6v0.6h-6.9v-0.6C41.5,34.6,42.2,34.4,42.8,34.1"/>
		<path id="Path_888" class="st0" d="M96.9,32.5l-8.1-10.7l-2.4,2.5v7.5c-0.1,0.9,0.2,1.7,0.8,2.3c0.7,0.3,1.4,0.5,2.1,0.6v0.6H78.6
			v-0.6c0.7-0.1,1.4-0.3,2.1-0.6c0.6-0.6,0.9-1.4,0.8-2.3V12c0.1-0.9-0.2-1.7-0.8-2.3C80,9.3,79.3,9.1,78.6,9V8.4h10.6V9
			c-0.7,0.1-1.4,0.3-2.1,0.6c-0.6,0.6-0.9,1.4-0.8,2.3v11l11.5-11.9c1.1-1.1,0.9-1.7-0.5-2V8.4h6.5v0.6c-1.7,0.1-3.3,0.8-4.5,2
			l-7.4,7.5l9.9,12.8c1.2,1.7,3,2.8,5,3.3v0.6H96.1v-0.6C97.7,34.6,97.9,33.9,96.9,32.5"/>
		<path id="Path_889" class="st0" d="M112,31.9c-2.6-2.4-4.1-5.9-4-9.5c-0.1-3.8,1.3-7.5,3.9-10.3c2.6-2.8,6.4-4.3,10.2-4.2
			c3.8-0.1,7.4,1.3,10.1,3.9c2.6,2.5,4.1,6.1,4,9.7c0.1,3.7-1.3,7.4-3.9,10.1c-2.7,2.7-6.4,4.2-10.3,4
			C118.3,35.9,114.7,34.5,112,31.9 M116.4,31c1.9,2.6,4.1,3.8,6.8,3.6c2.6-0.1,4.9-1.6,6-3.8c1.3-2.8,1.8-5.8,1.5-8.9
			c-0.2-3.2-1.2-6.4-3-9.1c-1.9-2.7-4.2-4-6.8-3.8c-2.6,0.1-4.9,1.7-6,4.1c-1.3,2.8-1.8,6-1.5,9.1C113.6,25.3,114.7,28.4,116.4,31"
			/>
		<path id="Path_890" class="st0" d="M139,9.1V8.4h10.3v0.6c-0.6,0.1-1.2,0.3-1.8,0.6c-0.3,0.3-0.2,1,0.2,2.1l6.6,16.5l6.5-16.5
			c0.4-1.1,0.5-1.8,0.2-2.1c-0.6-0.3-1.2-0.5-1.8-0.5V8.4h6.2V9c-0.7,0.2-1.4,0.4-2,0.7c-0.6,0.5-1,1.2-1.3,2l-9.3,24H152l-9.7-24
			C141.7,10.3,140.5,9.3,139,9.1"/>
		<path id="Path_891" class="st0" d="M162.2,34.7c1.7-0.3,3.1-1.5,3.7-3.1L175.7,8h0.7l10.2,23.6c0.3,0.9,0.8,1.7,1.5,2.3
			c0.6,0.4,1.3,0.7,2,0.8v0.6h-10.8v-0.6c0.8-0.1,1.6-0.4,2.2-1c0.4-0.5,0.4-1.4-0.1-2.6l-1.8-4.4H169l-1.8,4.5
			c-0.8,2-0.1,3.2,2.3,3.5v0.6h-7.4L162.2,34.7z M174.1,14.1l-4.7,11.8h9.6L174.1,14.1z M181.5,0.3l-7.1,6.5h-0.2l2.4-6.5L181.5,0.3
			z"/>
		<path id="Path_892" class="st0" d="M208.8,34.1c0.6-0.6,0.9-1.4,0.8-2.3V12c0.1-0.9-0.2-1.7-0.8-2.3c-0.7-0.3-1.4-0.5-2.1-0.6V8.4
			h10.6V9c-0.7,0.1-1.4,0.3-2.1,0.6c-0.6,0.6-0.9,1.4-0.8,2.3v19.7c-0.1,0.8,0.2,1.6,0.7,2.2c0.7,0.4,1.4,0.6,2.2,0.5h4.3
			c3.3,0,5.5-2.7,6.9-8h0.7l-0.8,8.9h-21.7v-0.6C207.4,34.6,208.1,34.4,208.8,34.1"/>
		<path id="Path_893" class="st0" d="M236.4,34.1c0.6-0.6,0.9-1.4,0.8-2.3V12c0.1-0.9-0.2-1.7-0.8-2.3c-0.7-0.3-1.4-0.5-2.1-0.6V8.4
			h20.1v8.5h-0.7c-1-5.1-3-7.6-6-7.6h-2.9c-0.8-0.1-1.5,0.1-2.2,0.5c-0.5,0.6-0.8,1.4-0.7,2.2v8.7h3.8c0.9,0,1.8-0.4,2.4-1.1
			c0.6-0.9,1.1-1.9,1.3-3h0.6v9h-0.6c-0.3-1.1-0.7-2.1-1.3-3c-0.6-0.7-1.5-1.1-2.4-1.1H242v10.1c-0.1,0.8,0.2,1.6,0.7,2.2
			c0.7,0.4,1.4,0.6,2.2,0.5h4.2c3.3,0,5.5-2.7,6.9-8h0.7l-0.8,8.9h-21.5v-0.6C235.1,34.6,235.8,34.4,236.4,34.1"/>
		<path id="Path_894" class="st0" d="M265.9,31.7c-2.4-2.4-3.8-5.8-3.7-9.3c-0.1-3.6,1.2-7.2,3.7-9.9c2.7-3.1,6.7-4.7,10.8-4.6
			c3.5-0.1,6.9,0.8,10,2.4v7.8H286c-1.6-6.1-4.7-9.1-9.3-9.1c-2.7,0-5.3,1.4-6.7,3.7c-1.7,2.7-2.6,5.8-2.5,9c-0.1,3.2,0.8,6.3,2.6,9
			c1.8,2.7,4.1,4.1,6.9,4.1c2.2,0.1,4.4-0.8,5.9-2.4v-4.8c0.1-1.2-0.2-2.5-1-3.5c-0.9-0.6-2-1.1-3.2-1.2v-0.7H290v0.6
			c-0.7,0.1-1.3,0.4-1.7,1c-0.3,0.8-0.5,1.7-0.4,2.5v6.7c-3.5,1.7-7.4,2.6-11.4,2.6C272.1,35.7,268.6,34.4,265.9,31.7"/>
		<path id="Path_895" class="st0" d="M292.9,34.7c1.7-0.3,3.1-1.5,3.7-3.1L306.3,8h0.7l10.2,23.6c0.3,0.9,0.8,1.7,1.5,2.3
			c0.6,0.4,1.3,0.7,2,0.8v0.6h-10.8v-0.6c0.8-0.1,1.6-0.4,2.2-1c0.4-0.5,0.4-1.4-0.1-2.6l-1.8-4.4h-10.3l-1.8,4.5
			c-0.8,2-0.1,3.2,2.3,3.5v0.6h-7.4L292.9,34.7z M304.8,14.1l-4.7,11.8h9.6L304.8,14.1z"/>
		<path id="Path_896" class="st0" d="M326.9,34.1c0.6-0.6,0.9-1.4,0.8-2.3V12c0.1-0.9-0.2-1.7-0.8-2.3c-0.7-0.3-1.4-0.5-2.1-0.6V8.4
			h10.6V9c-0.7,0.1-1.4,0.3-2.1,0.6c-0.6,0.6-0.9,1.4-0.8,2.3v19.7c-0.1,0.8,0.2,1.6,0.7,2.2c0.7,0.4,1.4,0.6,2.2,0.5h4.3
			c3.3,0,5.5-2.7,6.9-8h0.7l-0.8,8.9h-21.7v-0.6C325.5,34.6,326.2,34.4,326.9,34.1"/>
		<path id="Path_897" class="st1" d="M79,61.9L78.4,64h-1.8l2.9-8.4h2.3l2.9,8.4h-1.8l-0.7-2.1H79z M81.6,59.9
			c-0.4-1.2-0.7-2.3-1-3.3h0c-0.3,1.1-0.6,2.2-0.9,3.3l-0.2,0.6h2.3L81.6,59.9z"/>
		<path id="Path_898" class="st1" d="M95.2,56.7c1.5,1.8,1.5,4.4,0,6.2c-0.9,0.8-2.1,1.2-3.3,1.1h-2.8v-8.4h2.8
			C93.1,55.5,94.3,55.9,95.2,56.7 M90.8,62.5h1.1c0.7,0.1,1.5-0.2,2-0.7c0.9-1.2,0.9-2.9,0-4.1c-0.6-0.5-1.3-0.7-2-0.7h-1.1V62.5z"
			/>
		<path id="Path_899" class="st1" d="M102.8,64l-2.6-8.4h1.8l1,3.3c0.4,1.2,0.7,2.3,0.9,3.4h0c0.2-1,0.5-2.1,0.9-3.4l1-3.3h1.8
			L105,64H102.8z"/>
		<path id="Path_900" class="st1" d="M117.6,55.9c0.6,0.4,1.1,0.9,1.4,1.5c0.6,1.5,0.6,3.2,0,4.7c-0.3,0.6-0.8,1.2-1.4,1.5
			c-1.3,0.7-2.9,0.7-4.3,0c-0.6-0.4-1.1-0.9-1.4-1.5c-0.6-1.5-0.6-3.2,0-4.7c0.3-0.6,0.8-1.2,1.4-1.5
			C114.6,55.2,116.2,55.2,117.6,55.9 M113.8,57.7c-0.8,1.3-0.8,2.9,0,4.2c0.7,0.9,2,1,2.9,0.3c0.1-0.1,0.2-0.2,0.3-0.3
			c0.8-1.3,0.8-2.9,0-4.2c-0.7-0.9-2-1-2.9-0.3C114,57.5,113.9,57.6,113.8,57.7"/>
		<path id="Path_901" class="st1" d="M131.2,64H129l-2.9-4h0v4h-1.7v-8.4h1.7v3.7h0l2.8-3.7h2l-3.2,4L131.2,64z"/>
		<path id="Path_902" class="st1" d="M137.3,61.9l-0.7,2.1h-1.8l2.9-8.4h2.3L143,64h-1.8l-0.7-2.1H137.3z M139.9,59.9
			c-0.4-1.2-0.7-2.3-1-3.3h0c-0.3,1.1-0.6,2.2-0.9,3.3l-0.2,0.6h2.3L139.9,59.9z M137.9,55l0.9-1.7h2l-1.7,1.7L137.9,55z"/>
		<path id="Path_903" class="st1" d="M150.1,57.1V64h-1.7v-6.9h-2.6v-1.5h7v1.5H150.1z"/>
		<path id="Path_904" class="st1" d="M162,64l-1.6-3.4c-0.6-1.3-1.1-2.4-1.5-3.5h0c0.1,1.3,0.1,2.5,0.1,3.7V64h-1.7v-8.4h2.5
			l1.6,3.4c0.6,1.3,1.1,2.4,1.5,3.5h0c-0.1-1.3-0.1-2.5-0.1-3.7v-3.2h1.7V64H162z"/>
		<path id="Path_905" class="st1" d="M169.9,55l0.9-1.7h2l-1.7,1.7H169.9z M170,55.6h1.7V64H170V55.6z"/>
		<path id="Path_906" class="st1" d="M190.3,64h-2.2l-2.9-4h0v4h-1.7v-8.4h1.7v3.7h0l2.8-3.7h2l-3.2,4L190.3,64z"/>
		<path id="Path_907" class="st1" d="M196.4,61.9l-0.7,2.1H194l2.9-8.4h2.3l2.9,8.4h-1.8l-0.7-2.1H196.4z M199,59.9
			c-0.4-1.2-0.7-2.3-1-3.3h0c-0.3,1.1-0.6,2.2-0.9,3.3l-0.2,0.6h2.3L199,59.9z"/>
		<path id="Path_908" class="st1" d="M211.2,64l-1.6-3.4c-0.6-1.3-1.1-2.4-1.5-3.5h0c0.1,1.3,0.1,2.5,0.1,3.7V64h-1.7v-8.4h2.5
			l1.6,3.4c0.6,1.3,1.1,2.4,1.5,3.5h0c-0.1-1.3-0.1-2.5-0.1-3.7v-3.2h1.7V64H211.2z"/>
		<path id="Path_909" class="st1" d="M224.3,55.8c0.5,0.2,0.9,0.6,1.2,1.1c0.3,0.5,0.5,1,0.5,1.6h-1.8c0-0.4-0.2-0.9-0.5-1.2
			c-0.3-0.3-0.8-0.4-1.2-0.4c-0.6,0-1.2,0.3-1.5,0.8c-0.4,0.6-0.6,1.4-0.5,2.1c0,0.7,0.1,1.5,0.5,2.1c0.3,0.5,0.9,0.8,1.5,0.8
			c0.4,0,0.9-0.1,1.2-0.4c0.3-0.3,0.5-0.7,0.6-1.2h1.8c0,0.9-0.4,1.7-1.1,2.3c-0.7,0.6-1.6,0.9-2.5,0.8c-0.7,0-1.4-0.2-2-0.5
			c-0.6-0.4-1-0.9-1.3-1.5c-0.3-0.7-0.5-1.5-0.5-2.3c0-0.8,0.1-1.6,0.5-2.3c0.3-0.6,0.7-1.2,1.3-1.5c0.6-0.4,1.3-0.6,2.1-0.5
			C223.1,55.4,223.7,55.5,224.3,55.8"/>
		<path id="Path_910" class="st1" d="M232.8,57.1V59h3.8v1.5h-3.8v2.1h4.2V64H231v-8.4h5.8v1.5L232.8,57.1z"/>
		<path id="Path_911" class="st1" d="M247.8,62.5V64h-5.7v-8.4h1.7v6.9H247.8z"/>
		<path id="Path_912" class="st1" d="M254,61.9l-0.7,2.1h-1.8l2.9-8.4h2.3l2.9,8.4h-1.8l-0.7-2.1H254z M256.6,59.9
			c-0.4-1.2-0.7-2.3-1-3.3h0c-0.3,1.1-0.6,2.2-0.9,3.3l-0.2,0.6h2.3L256.6,59.9z M254.6,55l0.9-1.7h2.1l-1.7,1.7H254.6z"/>
		<path id="Path_913" class="st1" d="M269.4,56.2c0.5,0.4,0.8,1.1,0.8,1.8c0,0.5-0.1,0.9-0.4,1.3c-0.3,0.4-0.7,0.6-1.1,0.7v0
			c0.3,0.1,0.5,0.3,0.7,0.5c0.2,0.3,0.4,0.7,0.6,1.1l0.8,2.3h-1.9l-0.7-2c-0.1-0.4-0.3-0.7-0.5-1c-0.3-0.2-0.6-0.3-0.9-0.3h-1V64
			H264v-8.4h3.1C267.9,55.5,268.7,55.7,269.4,56.2 M266,55l-1.3-1.7h1.5l0.7,0.9l0.7-0.9h1.5l-1.3,1.7H266z M265.7,59.4h1.2
			c1,0,1.5-0.4,1.5-1.2c0-0.8-0.5-1.2-1.5-1.2h-1.1L265.7,59.4z"/>
	</g>
</g>
</svg>
