<?xml version="1.0" encoding="UTF-8"?>
<svg id="Layer_2" data-name="Layer 2" xmlns="http://www.w3.org/2000/svg" viewBox="0 0 815.53 281.56">
  <defs>
    <style>
      .cls-1 {
        fill: #c4a07d;
      }

      .cls-1, .cls-2 {
        stroke-width: 0px;
      }

      .cls-2 {
        fill: #ffffff;
      }
    </style>
  </defs>
  <g id="Vrstva_1" data-name="Vrstva 1">
    <g>
      <path class="cls-1" d="m408.19,29.84l29.86,30.73-30.29,31.18-30.29-31.18,29.86-30.73-14.25-14.7,14.68-15.14,14.72,15.14-14.29,14.7Zm-61,61.91l30.29-31.18-30.29-31.18v62.35Zm90.86-31.18l30.29,31.18V29.4l-30.29,31.18Z"/>
      <g>
        <path class="cls-2" d="m0,188.59h1.57c1.11,6.85,3.62,12.44,7.54,16.75,4.31,4.7,9.5,7.05,15.57,7.05,4.77,0,8.42-1.4,10.97-4.2,2.09-2.28,3.13-4.99,3.13-8.11,0-5.02-3.13-8.7-9.4-11.05l-14.69-5.67c-8.88-3.39-13.32-9.16-13.32-17.31,0-4.89,1.76-8.8,5.29-11.73,3.79-3.19,9.43-4.79,16.94-4.79,6.01,0,11.91.78,17.72,2.35v19h-1.57c-.92-5.65-2.97-10.16-6.17-13.54-3.46-3.64-7.61-5.46-12.44-5.46-3.27,0-6.01.95-8.23,2.84-2.02,1.83-3.04,4.14-3.04,6.94,0,4.3,3.33,7.76,9.99,10.36l13.22,5.18c9.34,3.72,14,9.75,14,18.09,0,6-2.19,10.79-6.56,14.37-4.18,3.39-9.53,5.08-16.06,5.08-8.1,0-16.26-2.19-24.48-6.56v-19.59Zm23.89-50.92l12.14-6.86h.98l-12.73,14.88h-.78l-12.73-14.88h.98l12.14,6.86Z"/>
        <path class="cls-2" d="m63.85,210.82c1.31-.91,1.96-2.71,1.96-5.38v-46.52c0-2.74-.65-4.57-1.96-5.48-.65-.46-2.29-.91-4.9-1.37v-1.47h24.09v1.47c-2.55.46-4.18.95-4.9,1.47-1.31.92-1.96,2.71-1.96,5.39v46.52c0,2.68.65,4.47,1.96,5.38.46.39,2.09.88,4.9,1.47v1.47h-24.09v-1.47c2.55-.45,4.18-.95,4.9-1.47Z"/>
        <path class="cls-2" d="m100.57,210.82c1.31-.91,1.96-2.71,1.96-5.38v-46.32c0-2.28-.39-3.88-1.17-4.8-.85-.91-2.81-1.63-5.88-2.16v-1.47h19.1l20.56,47.59,19.39-47.69h17.73v1.47c-2.74.46-4.57,1.11-5.48,1.96-.98.91-1.47,2.58-1.47,4.99v46.42c0,2.68.65,4.47,1.96,5.38.46.39,2.09.88,4.9,1.47v1.47h-24.97v-1.47c2.55-.45,4.18-.95,4.9-1.47,1.31-.91,1.96-2.71,1.96-5.38v-47.1l-22.52,55.43h-2.06l-24.38-56.02v47.69c0,2.68.65,4.47,1.96,5.38.46.39,2.09.88,4.9,1.47v1.47h-16.26v-1.47c2.55-.45,4.18-.95,4.9-1.47Z"/>
        <path class="cls-2" d="m227.48,207.2l-19.1-25.17-5.68,5.78v17.63c0,2.68.65,4.47,1.96,5.38.46.39,2.09.88,4.9,1.47v1.47h-24.97v-1.47c2.55-.45,4.18-.95,4.9-1.47,1.31-.91,1.96-2.71,1.96-5.38v-46.52c0-2.74-.65-4.57-1.96-5.48-.65-.46-2.29-.91-4.9-1.37v-1.47h24.97v1.47c-2.55.46-4.18.95-4.9,1.47-1.31.92-1.96,2.71-1.96,5.39v25.75l27.03-27.91c2.48-2.48,2.06-4.05-1.27-4.7v-1.47h15.28v1.47c-4.57.52-8.06,2.09-10.48,4.7l-17.43,17.73,23.31,30.06c3.2,4.18,7.12,6.76,11.75,7.74v1.47h-25.17v-1.47c3.59-.2,4.18-1.89,1.76-5.09Z"/>
        <path class="cls-2" d="m262.93,205.83c-6.27-5.88-9.4-13.28-9.4-22.23,0-9.73,3.04-17.79,9.11-24.19,6.14-6.53,14.13-9.79,23.99-9.79s17.46,3.07,23.8,9.2c6.27,6.07,9.4,13.68,9.4,22.82s-3.04,17.33-9.11,23.6c-6.14,6.33-14.17,9.5-24.09,9.5s-17.56-2.97-23.7-8.91Zm10.48-2.17c4.37,6.08,9.66,8.92,15.86,8.53,6.33-.39,11.03-3.4,14.1-9.03,2.87-5.3,4.05-12.23,3.53-20.79-.59-8.24-2.91-15.37-6.95-21.38-4.44-6.41-9.76-9.42-15.96-9.02-6.27.39-10.94,3.6-14,9.61-2.81,5.49-3.98,12.59-3.53,21.29.59,8.11,2.9,15.04,6.95,20.79Z"/>
        <path class="cls-2" d="m326.39,152.07v-1.47h24.09v1.47c-2.48.52-3.88.98-4.21,1.37-.72.72-.55,2.35.49,4.9l15.47,38.78,15.18-38.78c1.04-2.48,1.21-4.15.49-4.99-.33-.33-1.76-.75-4.31-1.27v-1.47h14.49v1.47c-2.15.59-3.72,1.14-4.7,1.66-1.11.85-2.12,2.41-3.04,4.7l-21.74,56.31h-1.76l-22.72-56.31c-1.37-3.39-3.95-5.52-7.74-6.36Z"/>
        <path class="cls-2" d="m380.84,212.29c4.11-.78,7.02-3.2,8.72-7.25l22.92-55.43h1.57l23.89,55.43c1.17,2.68,2.32,4.5,3.43,5.48.85.78,2.38,1.37,4.6,1.76v1.47h-25.36v-1.47c2.68-.52,4.37-1.27,5.09-2.25.98-1.24.88-3.3-.29-6.17l-4.31-10.38h-24.19l-4.21,10.48c-1.96,4.77-.13,7.54,5.48,8.32v1.47h-17.33v-1.47Zm27.91-48.47l-11.07,27.61h22.52l-11.46-27.61Zm17.53-32.41l-16.75,15.28h-.49l5.58-15.28h11.65Z"/>
        <path class="cls-2" d="m490.22,210.82c1.31-.91,1.96-2.71,1.96-5.38v-46.52c0-2.74-.65-4.57-1.96-5.48-.65-.46-2.29-.91-4.9-1.37v-1.47h24.97v1.47c-2.55.46-4.18.95-4.9,1.47-1.31.92-1.96,2.71-1.96,5.39v46.32c0,2.55.55,4.28,1.66,5.19.98.78,2.71,1.18,5.19,1.18h10.18c7.64,0,13.02-6.27,16.16-18.8h1.57l-1.96,20.96h-50.92v-1.47c2.55-.45,4.18-.95,4.9-1.47Z"/>
        <path class="cls-2" d="m555.15,210.82c1.31-.91,1.96-2.71,1.96-5.38v-46.52c0-2.74-.65-4.57-1.96-5.48-.65-.46-2.29-.91-4.9-1.37v-1.47h47.2v19.98h-1.57c-2.35-11.95-7.02-17.92-14-17.92h-6.76c-2.55,0-4.24.39-5.09,1.18-1.11.92-1.66,2.64-1.66,5.19v20.47h8.81c2.41,0,4.31-.85,5.68-2.55.98-1.18,2.02-3.52,3.13-7.05h1.47v21.25h-1.47c-1.11-3.52-2.15-5.88-3.13-7.05-1.37-1.7-3.27-2.55-5.68-2.55h-8.81v23.7c0,2.55.55,4.28,1.66,5.19.98.78,2.68,1.18,5.09,1.18h9.79c7.64,0,13.02-6.27,16.16-18.8h1.57l-1.96,20.96h-50.43v-1.47c2.55-.45,4.18-.95,4.9-1.47Z"/>
        <path class="cls-2" d="m624.48,205.34c-5.75-5.74-8.62-12.99-8.62-21.74s2.87-16.81,8.62-23.21c6.4-7.18,14.85-10.77,25.36-10.77,8.75,0,16.55,1.86,23.41,5.58v18.22h-1.57c-3.72-14.3-11-21.45-21.84-21.45-6.53,0-11.78,2.87-15.77,8.62-3.85,5.62-5.78,12.63-5.78,21.05s2.02,15.15,6.07,21.15c4.24,6.4,9.66,9.6,16.26,9.6,5.81,0,10.44-1.86,13.91-5.58v-11.26c0-3.92-.75-6.63-2.25-8.13-1.18-1.11-3.66-2.02-7.44-2.74v-1.66h26.24v1.47c-1.89.39-3.2,1.18-3.92,2.35-.65,1.11-.98,3.1-.98,5.97v15.77c-8.36,4.11-17.27,6.17-26.73,6.17-10.51,0-18.84-3.13-24.97-9.4Z"/>
        <path class="cls-2" d="m687.74,212.29c4.11-.78,7.02-3.2,8.72-7.25l22.92-55.43h1.57l23.89,55.43c1.17,2.68,2.32,4.5,3.43,5.48.85.78,2.38,1.37,4.6,1.76v1.47h-25.36v-1.47c2.68-.52,4.37-1.27,5.09-2.25.98-1.24.88-3.3-.29-6.17l-4.31-10.38h-24.19l-4.21,10.48c-1.96,4.77-.13,7.54,5.48,8.32v1.47h-17.33v-1.47Zm27.91-48.47l-11.07,27.61h22.52l-11.46-27.61Z"/>
        <path class="cls-2" d="m767.55,210.82c1.31-.91,1.96-2.71,1.96-5.38v-46.52c0-2.74-.65-4.57-1.96-5.48-.65-.46-2.29-.91-4.9-1.37v-1.47h24.97v1.47c-2.55.46-4.18.95-4.9,1.47-1.31.92-1.96,2.71-1.96,5.39v46.32c0,2.55.55,4.28,1.66,5.19.98.78,2.71,1.18,5.19,1.18h10.18c7.64,0,13.02-6.27,16.16-18.8h1.57l-1.96,20.96h-50.92v-1.47c2.55-.45,4.18-.95,4.9-1.47Z"/>
      </g>
      <g>
        <path class="cls-1" d="m185.61,276.28l-1.56,4.83h-4.28l6.86-19.78h5.5l6.86,19.78h-4.28l-1.53-4.83h-7.58Zm6.06-4.81c-.91-2.89-1.66-5.46-2.25-7.72h-.06c-.69,2.59-1.43,5.17-2.22,7.72l-.42,1.31h5.36l-.42-1.31Z"/>
        <path class="cls-1" d="m223.51,263.9c1.82,1.71,2.72,4.15,2.72,7.32s-.91,5.61-2.72,7.32c-1.82,1.71-4.41,2.57-7.78,2.57h-6.58v-19.78h6.58c3.37,0,5.96.86,7.78,2.57Zm-10.31,13.71h2.47c2.13,0,3.72-.53,4.77-1.58,1.05-1.05,1.57-2.66,1.57-4.81s-.52-3.75-1.57-4.81c-1.05-1.06-2.64-1.58-4.77-1.58h-2.47v12.78Z"/>
        <path class="cls-1" d="m241.4,281.12l-6.14-19.78h4.17l2.36,7.7c.85,2.7,1.56,5.4,2.14,8.08h.06c.52-2.35,1.23-5.05,2.14-8.08l2.36-7.7h4.17l-6.14,19.78h-5.11Z"/>
        <path class="cls-1" d="m276.05,262.14c1.41.83,2.49,2.02,3.24,3.57.75,1.55,1.13,3.38,1.13,5.51s-.38,3.97-1.13,5.51c-.75,1.55-1.83,2.74-3.24,3.57-1.41.83-3.07,1.25-5,1.25s-3.59-.42-5-1.25c-1.41-.83-2.49-2.02-3.24-3.57-.75-1.55-1.13-3.38-1.13-5.51s.38-3.97,1.13-5.51c.75-1.55,1.83-2.74,3.24-3.57,1.41-.83,3.07-1.25,5-1.25s3.59.42,5,1.25Zm-8.77,4.15c-.92,1.19-1.38,2.84-1.38,4.93s.46,3.74,1.38,4.93c.92,1.19,2.17,1.79,3.76,1.79s2.85-.6,3.76-1.79,1.38-2.84,1.38-4.93-.46-3.74-1.38-4.93c-.92-1.19-2.17-1.79-3.76-1.79s-2.85.6-3.76,1.79Z"/>
        <path class="cls-1" d="m308.08,281.12h-5.2l-6.7-9.33h-.06v9.33h-4.08v-19.78h4.08v8.7h.06l6.47-8.7h4.78l-7.53,9.39,8.17,10.39Z"/>
        <path class="cls-1" d="m322.45,276.28l-1.56,4.83h-4.28l6.86-19.78h5.5l6.86,19.78h-4.28l-1.53-4.83h-7.58Zm6.06-4.81c-.91-2.89-1.66-5.46-2.25-7.72h-.06c-.69,2.59-1.43,5.17-2.22,7.72l-.42,1.31h5.36l-.42-1.31Zm-4.64-11.48l2.14-4.06h4.81l-3.89,4.06h-3.06Z"/>
        <path class="cls-1" d="m352.51,264.83v16.28h-4.08v-16.28h-6.22v-3.5h16.53v3.5h-6.22Z"/>
        <path class="cls-1" d="m380.48,281.12l-3.83-8.03c-1.41-2.98-2.61-5.7-3.61-8.17h-.06c.15,3.06.22,5.92.22,8.58v7.61h-3.92v-19.78h5.81l3.83,8.03c1.41,2.98,2.61,5.71,3.61,8.17h.06c-.15-3.06-.22-5.92-.22-8.58v-7.61h3.92v19.78h-5.81Z"/>
        <path class="cls-1" d="m398.88,260l2.14-4.06h4.81l-3.89,4.06h-3.06Zm.31,21.12v-19.78h4.08v19.78h-4.08Z"/>
        <path class="cls-1" d="m446.91,281.12h-5.2l-6.7-9.33h-.06v9.33h-4.08v-19.78h4.08v8.7h.06l6.47-8.7h4.78l-7.53,9.39,8.17,10.39Z"/>
        <path class="cls-1" d="m461.28,276.28l-1.56,4.83h-4.28l6.86-19.78h5.5l6.86,19.78h-4.28l-1.53-4.83h-7.58Zm6.06-4.81c-.91-2.89-1.66-5.46-2.25-7.72h-.06c-.69,2.59-1.43,5.17-2.22,7.72l-.42,1.31h5.36l-.42-1.31Z"/>
        <path class="cls-1" d="m496.01,281.12l-3.83-8.03c-1.41-2.98-2.61-5.7-3.61-8.17h-.06c.15,3.06.22,5.92.22,8.58v7.61h-3.92v-19.78h5.81l3.83,8.03c1.41,2.98,2.61,5.71,3.61,8.17h.06c-.15-3.06-.22-5.92-.22-8.58v-7.61h3.92v19.78h-5.81Z"/>
        <path class="cls-1" d="m526.75,261.81c1.21.61,2.16,1.47,2.85,2.58.68,1.11,1.06,2.38,1.11,3.81h-4.11c-.13-1.15-.56-2.05-1.28-2.71-.72-.66-1.66-.99-2.81-.99-1.5,0-2.68.6-3.54,1.79s-1.29,2.84-1.29,4.93.42,3.74,1.26,4.93c.84,1.19,2,1.79,3.49,1.79,1.17,0,2.12-.33,2.85-.99.73-.66,1.17-1.59,1.32-2.79h4.2c-.19,2.33-1.02,4.15-2.5,5.45-1.48,1.3-3.44,1.95-5.86,1.95-1.83,0-3.43-.42-4.78-1.25-1.35-.83-2.39-2.02-3.11-3.57-.72-1.55-1.08-3.38-1.08-5.51s.37-3.95,1.1-5.5c.73-1.56,1.78-2.75,3.14-3.58,1.36-.83,2.97-1.25,4.82-1.25,1.61,0,3.02.31,4.24.92Z"/>
        <path class="cls-1" d="m546.6,264.83v4.47h8.95v3.47h-8.95v4.83h9.84v3.5h-13.92v-19.78h13.67v3.5h-9.59Z"/>
        <path class="cls-1" d="m581.85,277.61v3.5h-13.42v-19.78h4.08v16.28h9.33Z"/>
        <path class="cls-1" d="m596.38,276.28l-1.56,4.83h-4.28l6.86-19.78h5.5l6.86,19.78h-4.28l-1.53-4.83h-7.58Zm6.06-4.81c-.91-2.89-1.66-5.46-2.25-7.72h-.06c-.69,2.59-1.43,5.17-2.22,7.72l-.42,1.31h5.36l-.42-1.31Zm-4.64-11.48l2.14-4.06h4.81l-3.89,4.06h-3.06Z"/>
        <path class="cls-1" d="m632.64,262.78c1.19.96,1.78,2.34,1.78,4.14,0,1.2-.32,2.23-.97,3.08-.65.85-1.53,1.43-2.64,1.75v.06c.7.26,1.26.65,1.67,1.18.41.53.84,1.41,1.31,2.65l1.97,5.47h-4.45l-1.58-4.7c-.37-1.07-.8-1.82-1.29-2.24-.49-.42-1.22-.62-2.18-.62h-2.25v7.56h-4.08v-19.78h7.28c2.44,0,4.26.48,5.45,1.45Zm-8.06-2.78l-3.17-4.06h3.56l1.69,2.11,1.67-2.11h3.56l-3.17,4.06h-4.14Zm-.58,10.31h2.89c2.28,0,3.42-.97,3.42-2.92,0-1.83-1.21-2.75-3.64-2.75h-2.67v5.67Z"/>
      </g>
    </g>
  </g>
</svg>